<?xml version="1.0" encoding="UTF-8" standalone="no"?>
<svg
   viewBox="0 0 660 200"
   width="660"
   height="200"
   version="1.1"
   id="svg7"
   xmlns="http://www.w3.org/2000/svg"
   xmlns:svg="http://www.w3.org/2000/svg">
  <defs
     id="defs1">
    <style
       id="style1">
      .wordmark {
        font: bold 90px &quot;Space Grotesk&quot;;
        fill: #000000;
      }
    </style>
  </defs>
  <rect
     width="100%"
     height="100%"
     fill="#ffffff"
     id="rect1"
     x="0"
     y="0" />
  <rect
     x="4"
     y="4"
     width="192"
     height="192"
     rx="40"
     fill="#0f172a"
     id="rect2" />
  <line
     x1="12"
     y1="100"
     x2="75"
     y2="100"
     stroke="#a78bfa"
     stroke-width="5"
     stroke-linecap="round"
     opacity="0.55"
     id="line2" />
  <path
     d="m 91,80.95 a 22,22 0 0 1 0,38.1"
     fill="none"
     stroke="#a78bfa"
     stroke-width="7"
     stroke-linecap="round"
     opacity="0.95"
     id="path2" />
  <path
     d="m 100,65.36 a 40,40 0 0 1 0,69.28"
     fill="none"
     stroke="#a78bfa"
     stroke-width="5.5"
     stroke-linecap="round"
     opacity="0.72"
     id="path3" />
  <path
     d="m 109,49.77 a 58,58 0 0 1 0,100.46"
     fill="none"
     stroke="#a78bfa"
     stroke-width="4"
     stroke-linecap="round"
     opacity="0.45"
     id="path4" />
  <path
     d="m 118,34.18 a 76,76 0 0 1 0,131.64"
     fill="none"
     stroke="#a78bfa"
     stroke-width="2.5"
     stroke-linecap="round"
     opacity="0.22"
     id="path5" />
  <circle
     cx="80"
     cy="100"
     r="14"
     fill="#0f172a"
     id="circle5" />
  <circle
     cx="80"
     cy="100"
     r="10"
     fill="#a78bfa"
     id="circle6" />
  <circle
     cx="80"
     cy="100"
     r="4"
     fill="#ffffff"
     opacity="0.95"
     id="circle7" />
  <path
     d="m 247.72,136.26 c 9.72,0 12.6,-4.23 13.86,-7.29 h 1.62 V 135 h 10.98 v -32.22 h -26.64 v 10.08 h 14.94 v 0.9 c 0,7.02 -3.78,12.06 -12.42,12.06 -8.64,0 -13.68,-5.76 -13.68,-14.58 V 95.76 c 0,-8.82 5.04,-14.4 13.5,-14.4 8.46,0 12.6,5.22 12.6,11.88 v 0.72 h 11.7 V 93.6 c 0,-14.04 -8.82,-22.86 -24.3,-22.86 -15.66,0 -25.38,9 -25.38,25.2 v 15.12 c 0,16.2 10.26,25.2 23.22,25.2 z m 43.83006,-51.12 c 4.14,0 7.29,-2.88 7.29,-7.2 0,-4.32 -3.15,-7.2 -7.29,-7.2 -4.14,0 -7.29,2.88 -7.29,7.2 0,4.32 3.15,7.2 7.29,7.2 z m -5.67,49.86 h 11.34 V 90.36 h -11.34 z m 41.04007,0 h 12.6 v -9.36 h -8.64 c -1.62,0 -2.52,-0.9 -2.52,-2.7 V 99.72 h 12.24 v -9.36 h -12.24 V 76.5 h -11.34 v 13.86 h -11.16 v 9.36 h 11.16 v 25.2 c 0,6.12 3.96,10.08 9.9,10.08 z m 46.43991,0 h 11.88 v -23.04 h 14.04 c 11.52,0 20.16,-7.56 20.16,-19.35 v -1.26 c 0,-11.79 -8.28,-19.35 -20.16,-19.35 h -25.92 z m 11.88,-33.84 V 82.8 h 12.87 c 5.67,0 9.45,3.33 9.45,8.73 v 0.9 c 0,5.4 -3.87,8.73 -9.45,8.73 z m 59.85002,34.56 c 8.01,0 11.61,-3.51 13.05,-6.57 h 1.62 V 135 h 11.16 V 90.36 h -11.34 v 22.68 c 0,8.28 -4.05,13.14 -10.98,13.14 -6.12,0 -9.54,-3.33 -9.54,-10.08 V 90.36 h -11.34 V 117 c 0,11.07 6.93,18.72 17.37,18.72 z M 483.51997,135 h 11.34 V 72 h -11.34 z m 42.48006,1.26 c 11.34,0 18.72,-5.31 18.72,-14.67 0,-9.36 -7.92,-12.24 -18,-14.04 l -2.52,-0.45 c -4.14,-0.72 -6.66,-1.89 -6.66,-4.77 0,-2.61 2.34,-4.23 6.66,-4.23 4.32,0 7.38,1.71 8.37,6.3 l 10.53,-3.24 c -2.07,-7.2 -8.91,-12.06 -18.9,-12.06 -10.62,0 -17.64,4.95 -17.64,13.77 0,8.82 7.74,12.33 17.1,14.04 l 2.52,0.45 c 5.31,0.99 7.56,2.25 7.56,5.04 0,2.79 -2.52,4.86 -7.74,4.86 -5.22,0 -9.45,-1.98 -10.62,-8.28 l -10.44,2.7 c 1.53,9.36 9.36,14.58 21.06,14.58 z m 42.12005,0 c 9.36,0 12.15,-5.04 12.96,-7.29 h 1.71 v 0.09 c 0,3.6 3.24,5.94 7.65,5.94 h 7.56 v -9.36 h -3.6 c -1.62,0 -2.52,-0.9 -2.52,-2.7 v -16.65 c 0,-11.16 -7.38,-17.19 -19.08,-17.19 -11.61,0 -17.46,5.85 -19.62,12.6 l 10.44,3.51 c 0.81,-4.05 3.33,-6.93 9,-6.93 5.76,0 8.28,3.06 8.28,7.2 V 108 h -12.24 c -10.08,0 -17.28,4.77 -17.28,13.95 0,9.18 7.2,14.31 16.74,14.31 z m 1.98,-9.18 c -4.86,0 -7.38,-2.25 -7.38,-5.49 0,-3.24 2.52,-5.13 6.75,-5.13 h 11.43 v 0.9 c 0,5.94 -4.5,9.72 -10.8,9.72 z m 36.17993,7.92 h 11.34 v -25.38 c 0,-6.3 4.14,-9.36 9.9,-9.36 h 5.58 V 90.18 h -5.4 c -4.14,0 -7.38,1.62 -8.64,5.22 h -1.62 v -5.04 h -11.16 z"
     id="text7"
     style="font-style:normal;font-variant:normal;font-weight:bold;font-stretch:normal;font-size:90px;line-height:normal;font-family:'Space Grotesk'"
     class="wordmark"
     aria-label="Git Pulsar" />
</svg>
